<svg width="863" height="569" viewBox="0 0 863 569" fill="none" xmlns="http://www.w3.org/2000/svg">
<path d="M89.3319 77.698C34.1927 122.113 48.0812 418.651 89.3319 482.745C130.583 546.84 707.457 539.209 742.362 482.745C777.266 426.281 810.379 138.513 718.233 77.6981C626.087 16.8833 144.471 33.2827 89.3319 77.698Z" fill="#40C1F0"/>
<circle cx="83" cy="92.8809" r="83" fill="#FD9100"/>
<path d="M74.8677 69.9179L78.7001 140.472C78.8783 142.19 78.5997 143.753 77.8642 145.16C77.1678 146.452 76.1685 147.418 74.8662 148.057C72.798 149.072 70.9839 149.25 69.4241 148.59C67.8642 147.929 66.6707 146.757 65.8435 145.071C65.5051 144.382 65.2628 143.598 65.1166 142.719L59.9999 59.9625C59.8607 58.1297 60.1971 56.4911 61.0092 55.0469C61.8978 53.5651 63.1075 52.5435 64.6381 51.9823C66.017 51.3055 67.4877 51.1064 69.0504 51.385C70.652 51.5495 72.0781 52.2278 73.3288 53.42L134.646 106.879C135.518 107.687 136.161 108.512 136.574 109.355C137.589 111.423 137.708 113.408 136.931 115.311C136.231 117.176 135.076 118.503 133.467 119.293C132.088 119.969 130.618 120.169 129.055 119.89C127.569 119.574 126.162 118.838 124.835 117.684L71.8739 72.2429L74.8677 69.9179ZM75.3812 124.705L75.2148 108.389L106.239 93.1607L114.908 105.303L75.3812 124.705Z" fill="white"/>
<circle cx="780" cy="480.881" r="83" fill="#8C52FE"/>
<path d="M806.105 444.353C813.459 447.962 818.091 452.374 819.999 457.588C821.908 462.802 821.208 468.78 817.9 475.521C816.133 479.121 813.692 481.868 810.576 483.761C807.499 485.578 803.86 486.406 799.661 486.247C795.499 486.01 790.891 484.652 785.835 482.17L788.832 477.225C791.207 478.39 793.757 480.07 796.483 482.263C799.246 484.38 801.632 486.976 803.639 490.052C805.761 493.09 807.008 496.553 807.38 500.443C807.866 504.294 806.982 508.518 804.726 513.114C802.245 518.17 799.372 521.893 796.108 524.284C792.92 526.711 789.553 528.149 786.007 528.595C782.462 529.041 778.987 528.857 775.585 528.042C772.22 527.151 769.12 526.01 766.286 524.619L737.674 510.578C735.682 509.6 734.316 508.122 733.576 506.143C732.951 504.125 733.127 502.12 734.104 500.128L766.699 433.711C767.676 431.72 769.136 430.392 771.077 429.729C773.133 429.027 775.157 429.164 777.148 430.142L806.105 444.353ZM797.382 456.897L776.929 446.859L779.325 445.754L769.118 466.552L768.246 464.841L788.93 474.992C791.152 476.082 793.5 476.332 795.977 475.741C798.453 475.15 800.368 473.476 801.721 470.718C803.338 467.424 803.66 464.636 802.689 462.353C801.833 460.031 800.064 458.213 797.382 456.897ZM782.85 488.833L761.937 478.569L763.422 478.158L751.523 502.403L750.938 500.69L772.771 511.405C776.295 513.134 779.542 513.587 782.513 512.764C785.521 511.864 787.946 509.537 789.788 505.783C791.48 502.336 792.012 499.508 791.385 497.299C790.758 495.09 789.581 493.324 787.854 492.001C786.127 490.679 784.459 489.622 782.85 488.833Z" fill="white"/>
</svg>
